<?xml version="1.0" encoding="utf-8"?>
<!-- Generator: Adobe Illustrator 16.0.0, SVG Export Plug-In . SVG Version: 6.00 Build 0)  -->
<!DOCTYPE svg PUBLIC "-//W3C//DTD SVG 1.1//EN" "http://www.w3.org/Graphics/SVG/1.1/DTD/svg11.dtd">
<svg version="1.1" id="Layer_1" xmlns="http://www.w3.org/2000/svg" xmlns:xlink="http://www.w3.org/1999/xlink" x="0px" y="0px"
	 width="840px" height="484px" viewBox="0 0 840 484" enable-background="new 0 0 840 484" xml:space="preserve">
<g>
	<path fill-rule="evenodd" clip-rule="evenodd" fill="#13B3F0" d="M449.252,98.549c4.078-2.36,8.262-4.546,12.169-7.196
		c0.571-0.274,1.163-0.512,1.711-0.828c20.3-11.704,40.596-23.414,60.886-35.135c0.451-0.261,1.076-0.365,1.256-1.202
		c-0.682-0.421-1.398-0.892-2.14-1.319c-19.465-11.231-38.932-22.46-58.401-33.682c-3.468-1.998-2.391-1.975-5.739-0.044
		c-37.205,21.45-74.399,42.92-111.586,64.404c-3.038,1.755-6.182,3.339-9.051,5.381c-6.971,3.686-13.767,7.668-20.365,11.986
		c-5.14,3.364-9.875,7.262-14.664,11.089c-0.692,0.742-1.79,1.02-2.288,1.984c0.001,0,0.002-0.001,0.003-0.002l-0.024,0.037
		c0.006-0.013,0.016-0.022,0.021-0.035c-0.256,0.085-0.424,0.262-0.532,0.503l0.031-0.019c-2.895,1.908-5.179,4.432-7.244,7.176
		c0.001,0,0.002-0.001,0.003-0.001l-0.009,0.009c0.002-0.002,0.004-0.005,0.006-0.008c-0.618,0.349-1.308,0.632-1.389,1.484
		l0.002-0.029c-0.276,0.113-0.443,0.319-0.513,0.607c-1.531,1.845-3.081,3.674-4.592,5.535
		c-19.852,24.46-30.621,52.454-32.35,83.876c-0.827,15.044,0.704,29.907,4.72,44.451c9.329,33.782,28.397,60.733,57.038,80.915
		c0.55,0.388,1.021,1.061,1.993,0.809c0-0.859,0-1.729,0-2.6c0-38.516,0.01-77.031-0.011-115.548
		c-0.004-5.301,0.414-10.555,1.459-15.747c4.718-23.425,17.218-41.576,37.761-53.688
		C387.883,133.748,418.636,116.265,449.252,98.549z"/>
	<path fill-rule="evenodd" clip-rule="evenodd" fill="#13B3F0" d="M539.344,194.47c-6.147-32.604-21.696-59.886-46.381-82
		c-1.975-1.769-1.462-1.511-3.419-0.384c-15.321,8.824-30.634,17.663-45.94,26.513c-4.637,2.682-9.245,5.414-13.866,8.124
		c-0.291,0.123-0.599,0.216-0.87,0.373c-18.475,10.678-37.074,21.145-55.377,32.108c-15.313,9.171-23.076,23.134-23.409,40.945
		c-0.272,14.548-0.058,29.105-0.05,43.658c0,0.797,0.072,1.593,0.11,2.389c-0.038,1.038-0.111,2.075-0.111,3.113
		c-0.005,71.658-0.005,143.317-0.005,214.976c0,0.48-0.04,0.965,0.012,1.44c0.055,0.507-0.266,1.139,0.466,1.507
		c0.698-0.113,1.263-0.588,1.875-0.941c14.21-8.195,28.415-16.399,42.621-24.602c5.613-3.24,11.196-6.533,16.858-9.688
		c1.503-0.838,2.381-1.756,2.081-3.534c-0.065-0.39-0.01-0.8-0.01-1.2c0-71.578-0.001-143.157,0.011-214.735
		c0.001-1.104-0.247-2.249,0.321-3.305c0.711-0.354,1.444-0.673,2.132-1.07c18.363-10.596,36.721-21.203,55.088-31.793
		c0.742-0.428,1.4-1.104,2.369-1.037c0,0,0.001,0,0.001,0.001c0.117,0.462,0.214,0.93,0.353,1.385
		c4.014,13.118,4.742,26.425,1.895,39.834c-3.97,18.688-13.475,34.061-28.357,46.059c-1.296,1.045-1.869,2.097-1.865,3.802
		c0.057,23.215,0.037,46.43,0.049,69.644c0,0.692-0.201,1.425,0.227,2.103c0.882,0.044,1.465-0.578,2.135-0.964
		c7.211-4.151,14.406-8.328,21.614-12.485c40.751-23.502,69.092-66.624,71.639-117.497
		C542.088,216.226,541.385,205.297,539.344,194.47z"/>
</g>
</svg>
